<?xml version="1.0" encoding="UTF-8"?>
<svg version="1.1" xmlns="http://www.w3.org/2000/svg" width="1024" height="1024">
<path d="M0 0 C337.92 0 675.84 0 1024 0 C1024 337.92 1024 675.84 1024 1024 C686.08 1024 348.16 1024 0 1024 C0 686.08 0 348.16 0 0 Z " fill="#FBF8EA" transform="translate(0,0)"/>
<path d="M0 0 C2 2 2 2 2.375 4.4375 C2 7 2 7 0.44140625 8.51953125 C-2.68872389 10.41764217 -5.94050742 11.28820256 -9.4375 12.25 C-29.95054557 18.36473459 -44.03356146 30.94872789 -54.19628906 49.65991211 C-63.56424216 67.68605912 -65.43954482 86.3161399 -60 106 C-53.02162922 127.00221207 -39.28482493 141.11326728 -20.1796875 151.5390625 C-0.8001875 160.96849086 19.72546071 161.47569994 40 154.8125 C51.05910756 150.6713713 59.61965942 144.22167664 68 136 C68.92232422 135.11441406 68.92232422 135.11441406 69.86328125 134.2109375 C76.70716141 127.06812925 81.05343218 117.72902301 85.54296875 109 C85.96191406 108.195625 86.38085938 107.39125 86.8125 106.5625 C87.14894531 105.88316406 87.48539063 105.20382813 87.83203125 104.50390625 C89.35318456 102.54523059 90.59800803 102.3575292 93 102 C97.33578586 108.5036788 95.35105094 118.08163548 93.97216797 125.50317383 C87.8606824 154.58487069 69.74979386 178.2084374 45.33984375 194.46875 C21.08442282 210.05786451 -8.5238301 214.88690946 -36.64453125 208.8671875 C-40.59606424 207.84595313 -44.26285135 206.63500253 -48 205 C-47.2575 206.485 -47.2575 206.485 -46.5 208 C-44.28457441 213.22207461 -44.21031423 217.67739478 -46.0625 223.125 C-48.97534704 227.44728915 -52.07249127 231.17520624 -57.24609375 232.6328125 C-61.65111223 233.21222471 -65.6499549 233.00385656 -70 232 C-69.67 233.010625 -69.34 234.02125 -69 235.0625 C-67.21539588 241.50259314 -67.59368661 246.35626698 -70.7890625 252.203125 C-73.21437859 255.80198113 -75.94098728 257.64699576 -80 259 C-86.75709035 259.5595043 -91.99339792 259.20352111 -98 256 C-98 258.97 -98 261.94 -98 265 C-97.38294189 265.18473877 -96.76588379 265.36947754 -96.13012695 265.55981445 C-65.93303975 274.74368045 -38.09444294 289.11018178 -19 315 C-15.88606639 311.94789539 -12.93942773 308.82386225 -10.05761719 305.54785156 C9.92702156 283.08386431 35.68530803 270.54621824 65 265 C66.15242188 264.77441406 67.30484375 264.54882812 68.4921875 264.31640625 C89.63123127 260.96283804 111.70502328 262.53589636 132.875 264.8125 C133.66200287 264.89518127 134.44900574 264.97786255 135.25985718 265.06304932 C158.72972298 267.58199467 158.72972298 267.58199467 164 274 C165.07704535 276.32023354 165.97876929 278.51962219 166.81640625 280.921875 C167.06741592 281.61633728 167.3184256 282.31079956 167.57704163 283.02630615 C170.90968609 292.36162758 173.91208141 301.81189187 176.9375 311.25 C181.42978457 325.24008014 186.0846562 339.15273153 191 353 C191.50492517 354.42844694 192.00957456 355.8569914 192.51391602 357.28564453 C193.46658311 359.98347257 194.42065639 362.68079589 195.37597656 365.37768555 C197.15335003 370.39727808 198.92033793 375.42052288 200.68734741 380.44377136 C202.2021016 384.74650335 203.72831633 389.04492936 205.26445007 393.34007263 C206.21100084 395.99293766 207.14859073 398.64890988 208.08407593 401.30569458 C208.73318596 403.13998596 209.39342697 404.97032638 210.05395508 406.80053711 C213.84514778 417.61582581 213.84514778 417.61582581 213 423 C211.84375 424.921875 211.84375 424.921875 210 426 C207.40625 426.328125 207.40625 426.328125 204.5 426.25 C203.5409375 426.23453125 202.581875 426.2190625 201.59375 426.203125 C199 426 199 426 196 425 C196.87279925 427.50078652 197.74810132 430.00065035 198.625 432.5 C199.02452881 433.643479 199.02452881 433.643479 199.43212891 434.81005859 C200.8054366 438.71437155 202.21502281 442.59525339 203.734375 446.4453125 C204.00942871 447.14849609 204.28448242 447.85167969 204.56787109 448.57617188 C205.0921257 449.90694763 205.62580039 451.23406466 206.17041016 452.55664062 C207.84767043 456.83584792 208.50922617 460.41696444 208 465 C204.41657356 467.38895096 203.23444324 467.37507889 199 467 C196.07074232 466.23712646 193.2332225 465.24267254 190.375 464.25 C183.62524559 462.02178525 176.90788689 460.14987568 169.9375 458.75 C169.20901855 458.59950195 168.48053711 458.44900391 167.72998047 458.29394531 C152.22495058 455.31927909 136.68492012 454.59203043 120.9375 454.625 C119.5282576 454.62531723 119.5282576 454.62531723 118.09054565 454.62564087 C103.02802312 454.65936568 88.73045631 455.64008569 74 459 C73.1248877 459.18723633 72.24977539 459.37447266 71.34814453 459.56738281 C42.76107456 465.72394354 10.01604097 477.94328017 -10.5703125 499.65625 C-13.46910795 502.38080091 -17.52232553 502.70787851 -21.37890625 502.65234375 C-25.39819276 501.65201462 -27.84043884 499.13356315 -30.86865234 496.40332031 C-55.40440541 474.54515481 -90.02061618 463.00394955 -121.84741211 457.38037109 C-123.43244377 457.10028951 -125.01355667 456.79780418 -126.59204102 456.48291016 C-137.2484827 454.55416587 -147.88828539 454.60295692 -158.6875 454.625 C-159.68655365 454.62554382 -160.6856073 454.62608765 -161.7149353 454.62664795 C-177.48227195 454.66609588 -192.57159964 455.49109698 -208 459 C-209.62977783 459.36931641 -209.62977783 459.36931641 -211.29248047 459.74609375 C-223.48713351 462.5683008 -223.48713351 462.5683008 -235.46875 466.1640625 C-238.46581738 467.15383475 -240.86395184 467.28509529 -244 467 C-246 465 -246 465 -246.17211914 463.14892578 C-245.46178736 454.85621525 -242.48027827 447.52864879 -239.4375 439.875 C-238.91096629 438.5238824 -238.38556679 437.17232223 -237.86132812 435.8203125 C-236.58724291 432.54167372 -235.29795382 429.26927498 -234 426 C-234.89203125 426.03480469 -235.7840625 426.06960938 -236.703125 426.10546875 C-237.87359375 426.13253906 -239.0440625 426.15960937 -240.25 426.1875 C-241.41015625 426.22230469 -242.5703125 426.25710938 -243.765625 426.29296875 C-247 426 -247 426 -249.421875 424.92578125 C-251 423 -251 423 -251.38452148 419.7199707 C-250.9952374 415.95392528 -250.19402826 413.01058727 -248.84765625 409.48046875 C-248.17766602 407.7005957 -248.17766602 407.7005957 -247.49414062 405.88476562 C-246.78547852 404.05461914 -246.78547852 404.05461914 -246.0625 402.1875 C-245.58816059 400.93593756 -245.11484397 399.68398698 -244.64257812 398.43164062 C-241.25979663 389.51959325 -241.25979663 389.51959325 -240 387 C-240.88429688 386.75765625 -241.76859375 386.5153125 -242.6796875 386.265625 C-249.97316386 383.48552342 -256.33385204 376.85410271 -260 370 C-262.41147588 363.77035397 -261.00400561 357.65903423 -258.45703125 351.74609375 C-249.6058822 335.0641694 -234.2740772 322.96435655 -218 314 C-218.23589844 313.17628906 -218.23589844 313.17628906 -218.4765625 312.3359375 C-219.56887656 307.46128221 -220.25162267 301.68667279 -218.09375 297.0546875 C-215.36081041 293.56843763 -212.07144984 291.59317602 -208 290 C-207.01 290 -206.02 290 -205 290 C-204.7525 289.195625 -204.505 288.39125 -204.25 287.5625 C-202.73921353 283.25675857 -200.89811144 279.14635993 -199 275 C-199.42152344 274.52949219 -199.84304688 274.05898438 -200.27734375 273.57421875 C-200.82519531 272.95160156 -201.37304688 272.32898438 -201.9375 271.6875 C-202.75541016 270.76517578 -202.75541016 270.76517578 -203.58984375 269.82421875 C-207.06988774 265.32233358 -206.56459144 259.40615641 -206 254 C-204.00936672 250.01873344 -201.83177886 247.29906731 -198 245 C-197.34 245 -196.68 245 -196 245 C-197.9605918 242.57809248 -199.32441194 241.8775804 -202.3125 240.75 C-206.7079066 238.99557019 -209.38156401 235.8661471 -212 232 C-213.69179466 226.92461603 -213.56371867 222.68035564 -211.375 217.8125 C-209.25016849 213.86092485 -206.80851949 212.25048879 -203 210 C-203 209.34 -203 208.68 -203 208 C-203.79664063 207.65388672 -203.79664063 207.65388672 -204.609375 207.30078125 C-209.18544245 205.18810777 -212.20395164 203.36183544 -215 199 C-216.67833105 193.96500684 -217.04624193 188.68775945 -215.09375 183.671875 C-212.51091501 179.20158368 -210.00086698 176.73943199 -205 175 C-204.01 175 -203.02 175 -202 175 C-202 174.01 -202 173.02 -202 172 C-203.36125 171.6596875 -203.36125 171.6596875 -204.75 171.3125 C-209.0381147 169.58076137 -210.95989786 167.08020427 -213 163 C-213.59858031 157.36479397 -214.12971935 151.78334395 -210.8125 146.9375 C-207.87925392 143.58755322 -205.30680003 141.17116223 -200.68359375 140.828125 C-198.44598913 140.81411809 -196.23336942 140.86862533 -194 141 C-194.47429904 138.43878521 -195.10529889 136.83682691 -196.53515625 134.62109375 C-199.11006352 130.01372634 -198.6262612 125.12838335 -198 120 C-195.84062362 115.52129344 -193.07047061 112.81801812 -189 110 C-182.68507155 107.89502385 -177.20392764 109.3456193 -171 111 C-170.01 111 -169.02 111 -168 111 C-168.04640625 110.27554688 -168.0928125 109.55109375 -168.140625 108.8046875 C-168.37099474 102.6340694 -168.32603769 98.79371744 -164 94 C-159.2301876 89.69553516 -155.56559035 88.64966497 -149.28515625 88.7109375 C-145.15101031 89.23388929 -142.25836896 91.51819684 -139.61401367 94.63208008 C-137.46120465 96.45664353 -136.32947554 96.27935725 -133.55078125 96.07421875 C-132.70322266 96.01943359 -131.85566406 95.96464844 -130.98242188 95.90820312 C-130.10134766 95.83537109 -129.22027344 95.76253906 -128.3125 95.6875 C-126.97348633 95.5956543 -126.97348633 95.5956543 -125.60742188 95.50195312 C-123.40353414 95.34874168 -121.20175794 95.18091866 -119 95 C-118.84144531 93.80246094 -118.68289063 92.60492188 -118.51953125 91.37109375 C-115.4439124 69.37837464 -108.30557438 49.53859788 -93 33 C-92.31550781 32.23558594 -91.63101563 31.47117188 -90.92578125 30.68359375 C-69.62329038 8.04231417 -30.97846003 -9.78267159 0 0 Z " fill="#1C753A" transform="translate(536,126)"/>
<path d="M0 0 C1.35999619 0.00498505 1.35999619 0.00498505 2.74746704 0.0100708 C17.60464862 0.07365291 32.42295933 0.61020976 47.11938477 2.97900391 C49.24531802 3.31499375 51.39290702 3.50909275 53.5390625 3.671875 C58.97921016 6.67428561 59.95753585 12.60514616 61.8125 18.25 C62.2799421 19.60276095 62.74972414 20.9547153 63.22167969 22.3059082 C64.47414108 25.91811034 65.68970542 29.5415885 66.89324951 33.17034912 C67.60814826 35.32422831 68.32866151 37.47613765 69.05126953 39.62744141 C70.99768637 45.42551385 72.93583099 51.22621575 74.85107422 57.03466797 C78.9188635 69.35988507 83.15048134 81.62444058 87.4375 93.875 C87.74610962 94.75699066 88.05471924 95.63898132 88.37268066 96.54769897 C89.27520198 99.12575842 90.17846237 101.70355754 91.08203125 104.28125 C91.51592667 105.51969414 91.51592667 105.51969414 91.95858765 106.78315735 C93.5079378 111.20202535 95.06482861 115.618091 96.63037109 120.03125 C96.95591476 120.95240601 97.28145844 121.87356201 97.61686707 122.82263184 C98.24265136 124.59315225 98.87089549 126.36280567 99.50190735 128.13146973 C99.78060165 128.92146362 100.05929596 129.71145752 100.34643555 130.52539062 C100.71770821 131.57080017 100.71770821 131.57080017 101.09648132 132.6373291 C101.625 134.375 101.625 134.375 101.625 136.375 C100.34109375 136.12105469 99.0571875 135.86710938 97.734375 135.60546875 C88.57600038 133.81431529 79.41232051 132.10232204 70.1875 130.6875 C69.4337207 130.56850342 68.67994141 130.44950684 67.90332031 130.3269043 C55.3195006 128.4533794 42.6373768 128.13705898 29.9375 128.125 C29.19276428 128.12399292 28.44802856 128.12298584 27.6807251 128.12194824 C16.07436654 128.13252181 4.96972272 128.82656809 -6.375 131.375 C-7.66792969 131.63023437 -8.96085938 131.88546875 -10.29296875 132.1484375 C-42.4544478 139.18073683 -71.26327057 157.5300526 -95.375 179.375 C-96.37758094 180.27867161 -97.38018446 181.18231815 -98.3828125 182.0859375 C-100.0895045 183.62730891 -101.79100432 185.17447417 -103.484375 186.73046875 C-105.375 188.375 -105.375 188.375 -107.375 189.375 C-107.63275867 171.75449628 -107.82632244 154.13458658 -107.94493389 136.51262474 C-108.00148884 128.32906181 -108.07849104 120.14667486 -108.20483398 111.96386719 C-108.31499256 104.82582085 -108.38556063 97.68862661 -108.40997344 90.54975379 C-108.42423019 86.77444906 -108.45736063 83.00158034 -108.53803062 79.22706223 C-109.115443 51.12213442 -109.115443 51.12213442 -100.70030499 42.25978661 C-99.29350576 40.92695029 -97.83443639 39.64998318 -96.375 38.375 C-95.4138932 37.3718274 -94.46546919 36.35633932 -93.53056335 35.32870483 C-81.19463291 21.81498579 -64.76340754 12.02216617 -47.5625 6.0625 C-46.91313477 5.83208008 -46.26376953 5.60166016 -45.59472656 5.36425781 C-30.75278507 0.55351904 -15.45908151 -0.13500762 0 0 Z " fill="#FAF8E9" transform="translate(631.375,401.625)"/>
<path d="M0 0 C3.52747914 1.05824374 6.62095619 2.32136201 9.8125 4.125 C14.16849044 6.38272915 18.1698578 6.61128356 23 6 C23.66 5.67 24.32 5.34 25 5 C32.21399823 4.98521187 38.55292245 6.91899662 45.1875 9.5625 C46.55551758 10.09822632 46.55551758 10.09822632 47.95117188 10.64477539 C71.01303907 19.88046166 96.09023526 35.24684048 108 58 C108.36914349 60.73920155 108.36914349 60.73920155 108.36076355 63.76435852 C108.36694954 65.49115593 108.36694954 65.49115593 108.3732605 67.25283813 C108.36247467 68.50656219 108.35168884 69.76028625 108.34057617 71.05200195 C108.33972947 72.39262371 108.34020589 73.73324685 108.34190369 75.0738678 C108.34276339 78.7058097 108.32514191 82.33745354 108.30418181 85.96932626 C108.28541075 89.76763661 108.28366424 93.56595401 108.28010559 97.36430359 C108.27078637 104.55364424 108.24617431 111.74284781 108.21605712 118.93212813 C108.18250924 127.1182842 108.16602613 135.30444687 108.15097082 143.49065459 C108.1196246 160.32718327 108.06686657 177.16357413 108 194 C104.25998271 192.24827132 101.79891251 190.06439667 98.8125 187.1875 C60.82679453 151.52134973 11.3645405 131.64579562 -40.80078125 132.73828125 C-61.12426462 133.3845533 -81.17310827 135.43169863 -101 140 C-97.7704698 123.31409396 -97.7704698 123.31409396 -92.984375 119.31640625 C-91.44130585 118.34805163 -89.88345881 117.40289029 -88.3125 116.48046875 C-78.20766925 110.0113288 -75.0637887 99.29982597 -72.61328125 88.2109375 C-71.49987458 82.38150894 -70.86183141 76.68667411 -70.68359375 70.75390625 C-70.66281265 70.09792953 -70.64203156 69.44195282 -70.62062073 68.76609802 C-70.55594062 66.69832454 -70.49662534 64.63043899 -70.4375 62.5625 C-70.39423693 61.14907758 -70.35062035 59.73566593 -70.30664062 58.32226562 C-70.20034484 54.88162529 -70.09885528 51.44086308 -70 48 C-69.44570313 47.73590332 -68.89140625 47.47180664 -68.3203125 47.19970703 C-67.59585938 46.84763184 -66.87140625 46.49555664 -66.125 46.1328125 C-65.40570313 45.78621582 -64.68640625 45.43961914 -63.9453125 45.08251953 C-61.02440585 43.45710536 -60.10033083 42.16345114 -59 39 C-58.64268362 34.83588994 -58.49072405 30.73389327 -59.67578125 26.69921875 C-60.15991594 22.66865166 -58.84461938 19.55916726 -57.4375 15.8125 C-57.07688477 14.72678711 -57.07688477 14.72678711 -56.70898438 13.61914062 C-55.3393737 9.91049712 -54.76126244 8.37242354 -51.1015625 6.58203125 C-50.07804687 6.38996094 -49.05453125 6.19789063 -48 6 C-46.71416016 5.68675781 -46.71416016 5.68675781 -45.40234375 5.3671875 C-44.58894531 5.20476562 -43.77554688 5.04234375 -42.9375 4.875 C-42.12152344 4.70742188 -41.30554688 4.53984375 -40.46484375 4.3671875 C-37.89804233 3.98481138 -35.58876135 3.78061345 -33 4 C-31.66104368 5.66215268 -30.32869858 7.32963607 -29 9 C-24.2123355 12.28626971 -19.85092371 13.83584624 -14 13 C-7.68447434 10.77588833 -3.9611877 7.62819725 -0.75 1.6875 C-0.37875 0.8521875 -0.37875 0.8521875 0 0 Z " fill="#FAF8EA" transform="translate(403,397)"/>
<path d="M0 0 C1.53527344 -0.01836914 1.53527344 -0.01836914 3.1015625 -0.03710938 C4.07867187 -0.03904297 5.05578125 -0.04097656 6.0625 -0.04296875 C7.41021484 -0.04913208 7.41021484 -0.04913208 8.78515625 -0.05541992 C11 0.1875 11 0.1875 13 2.1875 C13.2561264 4.17156792 13.2561264 4.17156792 13.26501465 6.65304565 C13.27742439 8.06207657 13.27742439 8.06207657 13.29008484 9.49957275 C13.28910294 10.53338074 13.28812103 11.56718872 13.28710938 12.63232422 C13.29394241 13.718591 13.30077545 14.80485779 13.30781555 15.92404175 C13.32143213 18.28888748 13.33046699 20.65376291 13.33552551 23.01864243 C13.34378615 26.75855625 13.36426521 30.49822253 13.38806152 34.23806763 C13.43638603 42.17950899 13.46935287 50.12097665 13.5 58.0625 C13.53549941 67.25556657 13.57750529 76.44852564 13.63594055 85.64148331 C13.65605175 89.3308189 13.66433802 93.02006307 13.67224121 96.70944214 C13.68521168 98.96759373 13.6987317 101.22574226 13.71289062 103.48388672 C13.71190872 104.51364624 13.71092682 105.54340576 13.70991516 106.60437012 C13.72232491 108.0218605 13.72232491 108.0218605 13.73498535 109.46798706 C13.73791847 110.28762877 13.74085159 111.10727047 13.7438736 111.9517498 C14.03044472 114.45325463 14.67616192 116.0550614 16 118.1875 C20.64645218 121.10065933 26.24440638 120.47529926 31.53833008 120.4621582 C32.59910263 120.46726913 33.65987518 120.47238007 34.75279236 120.47764587 C38.25842944 120.49154218 41.7638699 120.49058481 45.26953125 120.48828125 C47.70944797 120.49216861 50.14936401 120.49650336 52.58927917 120.50126648 C57.70447991 120.50872912 62.81961162 120.50843739 67.93481445 120.50317383 C74.48177059 120.49738411 81.02844337 120.51429826 87.57535267 120.5375185 C92.61546982 120.55227014 97.655519 120.55312549 102.69565392 120.55000877 C105.10891976 120.55052142 107.52218946 120.55574859 109.93543434 120.56582069 C113.31497062 120.57819291 116.69395845 120.5713878 120.07348633 120.55981445 C121.06545013 120.56745819 122.05741394 120.57510193 123.07943726 120.58297729 C129.06363269 120.53781025 133.58208718 119.8070269 139 117.1875 C141.55057036 113.36164446 141.51454167 111.74486908 141 107.1875 C139.66708214 103.94959653 137.93933651 101.09650477 136 98.1875 C135.60039063 97.57777344 135.20078125 96.96804688 134.7890625 96.33984375 C125.67881902 84.22045924 109.11161986 79.85645559 95.3828125 75.33203125 C94.42826172 75.01693604 93.47371094 74.70184082 92.49023438 74.37719727 C90.6060431 73.75924803 88.71936162 73.14883172 86.83007812 72.54663086 C85.97091797 72.26827393 85.11175781 71.98991699 84.2265625 71.703125 C83.45908691 71.45852539 82.69161133 71.21392578 81.90087891 70.96191406 C80 70.1875 80 70.1875 78 68.1875 C77.45721126 63.58284222 77.53673289 58.94543606 77.5 54.3125 C77.45875 53.01957031 77.4175 51.72664062 77.375 50.39453125 C77.35953125 48.53248047 77.35953125 48.53248047 77.34375 46.6328125 C77.32505859 45.49344238 77.30636719 44.35407227 77.28710938 43.18017578 C78 40.1875 78 40.1875 80.50439453 38.01782227 C84.46438525 35.9443448 88.44910818 34.14389653 92.5859375 32.45703125 C93.42418564 32.10882828 94.26243378 31.76062531 95.12608337 31.40187073 C97.87329287 30.26194266 100.624027 29.13081197 103.375 28 C107.25246663 26.39733759 111.12829336 24.79073296 115.00390625 23.18359375 C115.99253159 22.77429626 116.98115692 22.36499878 117.9997406 21.94329834 C124.867443 19.0933807 131.70434787 16.17784928 138.52734375 13.22265625 C140.35951977 12.43184308 142.19171345 11.64107083 144.02392578 10.8503418 C146.65357811 9.71490445 149.28147848 8.57610145 151.90472412 7.42593384 C154.32438146 6.36551657 156.7493792 5.3183089 159.17578125 4.2734375 C159.88331039 3.95870987 160.59083954 3.64398224 161.31980896 3.31971741 C165.35425571 1.59852869 168.61079302 0.65820969 173 1.1875 C176.5025182 4.6900182 175.53820121 9.75210598 175.625 14.5 C175.71201172 16.06911133 175.71201172 16.06911133 175.80078125 17.66992188 C175.9233411 25.07536494 175.9233411 25.07536494 173.6340332 27.83276367 C171.49287045 29.25091446 169.37663213 30.21086685 167 31.1875 C166.03900391 31.62666748 165.07800781 32.06583496 164.08789062 32.51831055 C160.72657215 34.02817317 157.33866084 35.45728725 153.9375 36.875 C152.0763951 37.6585646 150.21621606 38.44429868 148.35609436 39.23019409 C147.09693994 39.76201782 145.83744798 40.29304307 144.57762146 40.82327271 C140.4204322 42.5756015 136.28354903 44.36943999 132.15625 46.19140625 C130.57855835 46.88713745 130.57855835 46.88713745 128.96899414 47.59692383 C126.98469822 48.47441186 125.00204116 49.3556176 123.02124023 50.2409668 C122.13637939 50.6306665 121.25151855 51.02036621 120.33984375 51.421875 C119.57019287 51.76444336 118.80054199 52.10701172 118.00756836 52.45996094 C116 53.1875 116 53.1875 113 53.1875 C113 53.8475 113 54.5075 113 55.1875 C114.0725 55.249375 115.145 55.31125 116.25 55.375 C131.04928769 57.2575949 145.72820526 67.31704222 155.0078125 78.63671875 C163.70852831 90.63316025 168.61924009 103.16904817 167 118.1875 C165.4071153 125.91661098 163.33975936 133.10690762 157 138.1875 C146.4119895 145.05963366 134.62898901 146.33439465 122.32592773 146.36450195 C120.57103279 146.37435875 120.57103279 146.37435875 118.78068542 146.38441467 C114.91498749 146.40409855 111.04932834 146.41580026 107.18359375 146.42578125 C105.84597314 146.42983328 104.50835272 146.43395032 103.1707325 146.43813133 C96.88149823 146.45716272 90.59227552 146.47139594 84.30301803 146.4797433 C77.07599481 146.48949711 69.84927938 146.51577628 62.62236446 146.55624419 C57.0152902 146.58654912 51.40830343 146.60122583 45.80114895 146.60452431 C42.46222295 146.6068592 39.12388636 146.61763303 35.78500175 146.64098549 C32.04970068 146.66548399 28.31519176 146.66439166 24.57983398 146.6574707 C22.95289612 146.67668579 22.95289612 146.67668579 21.29309082 146.69628906 C10.84402796 146.62623545 0.21631714 144.65584204 -7.48046875 137.12109375 C-9.95565945 133.97142949 -10.92468136 131.04599629 -12 127.1875 C-12.27665072 126.23772215 -12.27665072 126.23772215 -12.55889034 125.26875687 C-13.07756512 122.82152991 -13.12282888 120.57717481 -13.12025452 118.07489014 C-13.12162918 117.04286469 -13.12300385 116.01083923 -13.12442017 114.94754028 C-13.12082489 113.82113129 -13.11722961 112.69472229 -13.11352539 111.53417969 C-13.11367142 110.34365997 -13.11381744 109.15314026 -13.1139679 107.92654419 C-13.11339086 104.66653726 -13.10837765 101.40657333 -13.10139394 98.14657497 C-13.09514008 94.737957 -13.09455499 91.32933816 -13.09336853 87.92071533 C-13.09026121 81.46805116 -13.08205589 75.01540395 -13.07201904 68.56274724 C-13.06083931 61.21575913 -13.05534276 53.86877022 -13.05032361 46.52177572 C-13.03987279 31.41034104 -13.02228493 16.29892221 -13 1.1875 C-9.11308052 -0.75595974 -4.27485419 0.00269197 0 0 Z " fill="#1B7539" transform="translate(471,656.8125)"/>
<path d="M0 0 C5.28 0 10.56 0 16 0 C16.24234375 1.50949219 16.4846875 3.01898438 16.734375 4.57421875 C20.30176323 26.29204591 25.62139842 46.75600385 40 64 C40.81082031 64.98484375 41.62164062 65.9696875 42.45703125 66.984375 C50.32005654 76.19936072 59.61670166 82.70780191 69.875 89.0625 C71.421875 90.0215625 71.421875 90.0215625 73 91 C73 91.33 73 91.66 73 92 C72.11248047 92.23783203 72.11248047 92.23783203 71.20703125 92.48046875 C65.93648697 94.03669797 62.45413033 95.49916351 59 100 C56.46728356 105.54785507 56.30268384 110.60297571 58 116.4375 C58.495 117.7059375 58.495 117.7059375 59 119 C55.75585549 119.83719858 52.88267839 119.99838501 49.5625 119.875 C45.30230157 119.83961629 42.60274627 120.57024089 39 123 C33.93978322 128.48190151 32.72474425 132.75255754 32 140 C30.7934375 139.7834375 30.7934375 139.7834375 29.5625 139.5625 C28.386875 139.376875 27.21125 139.19125 26 139 C24.93265625 138.80470703 24.93265625 138.80470703 23.84375 138.60546875 C18.35783911 137.75064359 14.96042274 138.13821765 10 141 C5.66773998 144.54457638 3.90737156 147.88021319 2 153 C1.01 153 0.02 153 -1 153 C-2.2123249 151.49278526 -3.423656 149.98473171 -4.625 148.46875 C-7.67501525 145.21077916 -11.75854779 144.88352661 -16 144.625 C-20.27388578 144.74734406 -22.71109635 146.23433102 -26 149 C-28.44863311 151.71335021 -29.8434789 153.53043669 -31 157 C-33.97 157.33 -36.94 157.66 -40 158 C-39.896875 156.515 -39.79375 155.03 -39.6875 153.5 C-39.70349374 147.85420888 -41.14815396 144.13787421 -45 140 C-47.28282155 138.330333 -49.42179319 137.21327379 -52 136 C-52 132 -52 132 -49.625 129.5 C-48.75875 128.675 -47.8925 127.85 -47 127 C-44.25892616 122.55044863 -44.35744301 118.0762002 -45 113 C-47.35193495 108.11521204 -50.30776787 105.63938057 -55 103 C-57.22602615 102.23060319 -57.22602615 102.23060319 -59 102 C-58 99 -58 99 -55.125 97.1875 C-51.47285095 94.63099566 -50.40406691 93.21220074 -49 89 C-48.34340063 84.02281467 -48.39353406 80.23625749 -50.625 75.6875 C-52.45696456 73.61448748 -54.13223452 71.98134855 -56.25 70.25 C-57.1575 69.5075 -58.065 68.765 -59 68 C-59 67.34 -59 66.68 -59 66 C-57.14375 65.4121875 -57.14375 65.4121875 -55.25 64.8125 C-51.28162929 63.33050669 -49.2853176 61.65650816 -47 58 C-45.55357444 53.66072333 -45.46313338 49.53511016 -46 45 C-47.79433653 41.59722188 -47.79433653 41.59722188 -50 39 C-50.495 37.515 -50.495 37.515 -51 36 C-50.34773438 35.90203125 -49.69546875 35.8040625 -49.0234375 35.703125 C-42.88005243 34.65204437 -37.8785231 33.53518618 -33.75 28.46484375 C-30.7698636 23.92220528 -30.55357769 20.35706774 -31 15 C-31.33 14.01 -31.66 13.02 -32 12 C-31.01 11.34 -30.02 10.68 -29 10 C-28.278125 10.66 -27.55625 11.32 -26.8125 12 C-21.81949156 15.33661662 -15.72871022 14.7215551 -10 14 C-5.44557186 11.87983518 -3.10717616 9.54706434 -1 5 C-0.67 3.35 -0.34 1.7 0 0 Z " fill="#FAF8EA" transform="translate(401,233)"/>
<path d="M0 0 C1.02448242 0.00273926 2.04896484 0.00547852 3.10449219 0.00830078 C11.5143821 0.12447424 19.68685653 0.52040435 26.875 5.3125 C28.11641101 12.76096607 26.54330367 21.03041537 24.875 28.3125 C24.545 28.6425 24.215 28.9725 23.875 29.3125 C22.26726094 29.2480733 20.66216777 29.11081686 19.0625 28.9375 C17.75345703 28.80214844 17.75345703 28.80214844 16.41796875 28.6640625 C13.875 28.3125 13.875 28.3125 11.96899414 27.80541992 C8.38551197 26.961879 4.79202949 27.04493909 1.125 27 C-0.03515625 26.95649414 -0.03515625 26.95649414 -1.21875 26.91210938 C-6.39121998 26.85569821 -9.90993677 27.78003807 -14.40722656 30.35083008 C-16.125 31.3125 -16.125 31.3125 -19.125 32.3125 C-20.29166667 34.22916667 -20.29166667 34.22916667 -21.125 36.3125 C-21.62 37.3025 -21.62 37.3025 -22.125 38.3125 C-22.87602535 41.68433542 -22.87602535 41.68433542 -22.125 45.3125 C-17.15935317 49.85940759 -10.40956539 51.82238763 -4.125 53.8125 C3.75207747 56.30690787 11.74996712 59.1111328 17.1875 65.6875 C17.86232422 66.47253906 17.86232422 66.47253906 18.55078125 67.2734375 C22.38527838 73.1778844 23.40676992 78.14470815 23.3125 85.0625 C23.30347656 85.85599854 23.29445313 86.64949707 23.28515625 87.46704102 C22.94714914 98.98627627 18.57450279 107.7604571 10.875 116.3125 C-7.07030475 132.32430391 -35.17485061 134.43447156 -58.125 133.3125 C-76.29780236 131.78872535 -94.8363781 126.94450053 -107.63671875 113.10546875 C-119.22217597 99.14818564 -119.44774351 82.67988076 -118.125 65.3125 C-117.00485103 56.09583564 -115.41226456 46.62784939 -111.125 38.3125 C-108.12484088 37.31244696 -106.15076244 37.19674415 -103.01953125 37.21484375 C-102.03662109 37.21806641 -101.05371094 37.22128906 -100.04101562 37.22460938 C-98.50477539 37.23717773 -98.50477539 37.23717773 -96.9375 37.25 C-95.38385742 37.25676758 -95.38385742 37.25676758 -93.79882812 37.26367188 C-91.24082734 37.2754599 -88.68294267 37.29191485 -86.125 37.3125 C-85.32555304 40.60816473 -85.01428004 42.98648243 -85.8671875 46.2734375 C-86.04636719 46.99273438 -86.22554688 47.71203125 -86.41015625 48.453125 C-86.60480469 49.19046875 -86.79945313 49.9278125 -87 50.6875 C-90.13860053 62.93886484 -93.88606213 79.91974871 -87.3125 91.62890625 C-81.55793361 99.78751847 -73.86847842 103.33794229 -64.25 105.125 C-46.33521638 108.05419918 -25.69433152 108.07883862 -9.97265625 97.875 C-7.25418477 95.5760812 -5.40471914 93.63650393 -4.65625 90.09375 C-4.6459375 89.3409375 -4.635625 88.588125 -4.625 87.8125 C-4.5940625 87.0596875 -4.563125 86.306875 -4.53125 85.53125 C-5.46876573 82.02790176 -7.03850581 81.21830576 -10.125 79.3125 C-14.82738122 77.44962997 -19.66282395 75.98931866 -24.49023438 74.48828125 C-34.54320052 71.20060112 -41.91021052 66.51245115 -46.875 56.9375 C-50.69204474 45.65601222 -48.22487149 33.71777936 -43.125 23.3125 C-41.07349192 19.98915437 -38.81892856 17.13498914 -36.125 14.3125 C-35.60292969 13.76207031 -35.08085937 13.21164062 -34.54296875 12.64453125 C-24.98770997 3.60074617 -12.81063271 -0.06820763 0 0 Z " fill="#1C7539" transform="translate(351.125,702.6875)"/>
<path d="M0 0 C1.04800781 -0.01224609 2.09601562 -0.02449219 3.17578125 -0.03710938 C18.46080373 -0.06544996 32.18936809 2.86690133 43.4375 13.80859375 C53.89169087 25.17752632 56.77308488 38.56545635 56.79296875 53.6640625 C56.79796135 54.99647476 56.79796135 54.99647476 56.80305481 56.35580444 C56.80809284 58.22320033 56.81046411 60.09060513 56.81030273 61.95800781 C56.81249861 64.81069658 56.83071297 67.66300401 56.84960938 70.515625 C56.8525421 72.33593619 56.8545277 74.1562492 56.85546875 75.9765625 C56.86265427 76.82562164 56.86983978 77.67468079 56.87724304 78.54946899 C56.87416641 79.34734833 56.87108978 80.14522766 56.86791992 80.96728516 C56.86934494 81.66342926 56.87076996 82.35957336 56.87223816 83.07681274 C56.5674078 85.67916815 55.67665644 87.79949147 54.625 90.1875 C42.40347967 90.23376542 30.18198004 90.26933965 17.96039009 90.29112434 C12.28589925 90.30157795 6.61146816 90.31576583 0.93701172 90.33837891 C-4.53537715 90.36005116 -10.00770841 90.37205674 -15.48013687 90.37725449 C-17.57180819 90.38096037 -19.66347623 90.38819663 -21.75512314 90.39896011 C-24.67649999 90.41340041 -27.59763639 90.41548108 -30.51904297 90.41455078 C-31.39082184 90.42174133 -32.26260071 90.42893188 -33.16079712 90.43634033 C-39.14689568 90.41560432 -39.14689568 90.41560432 -41.375 88.1875 C-41.63378906 86.06445312 -41.63378906 86.06445312 -41.640625 83.46875 C-41.64320313 82.53675781 -41.64578125 81.60476563 -41.6484375 80.64453125 C-41.64070312 79.66871094 -41.63296875 78.69289063 -41.625 77.6875 C-41.63273438 76.71167969 -41.64046875 75.73585938 -41.6484375 74.73046875 C-41.64585937 73.79847656 -41.64328125 72.86648438 -41.640625 71.90625 C-41.63836914 71.04966797 -41.63611328 70.19308594 -41.63378906 69.31054688 C-41.375 67.1875 -41.375 67.1875 -39.375 65.1875 C-36.51498413 64.94699097 -36.51498413 64.94699097 -32.81396484 64.96044922 C-32.14067642 64.96015717 -31.467388 64.95986511 -30.7736969 64.95956421 C-28.54431346 64.96095953 -26.31526268 64.97652984 -24.0859375 64.9921875 C-22.54180077 64.99591692 -20.99766167 64.99876423 -19.45352173 65.00076294 C-15.38624557 65.00840501 -11.31911189 65.02805832 -7.25189209 65.0501709 C-3.1028435 65.07061704 1.04622807 65.07976201 5.1953125 65.08984375 C13.33860711 65.11130375 21.48178584 65.14544651 29.625 65.1875 C29.48691972 62.13901095 29.34284076 59.09100307 29.1953125 56.04296875 C29.15704346 55.18441284 29.11877441 54.32585693 29.0793457 53.44128418 C28.62085646 44.17134399 27.38736818 36.72671759 20.6640625 29.87890625 C12.03904681 22.72443921 1.06821833 23.48447301 -9.58422852 23.3293457 C-11.375 23.1875 -11.375 23.1875 -12.375 22.1875 C-12.47399523 20.63794441 -12.50579524 19.08396327 -12.5078125 17.53125 C-12.50974609 16.12166016 -12.50974609 16.12166016 -12.51171875 14.68359375 C-12.50785156 13.69488281 -12.50398437 12.70617187 -12.5 11.6875 C-12.50580078 10.20443359 -12.50580078 10.20443359 -12.51171875 8.69140625 C-12.51042969 7.75167969 -12.50914062 6.81195312 -12.5078125 5.84375 C-12.50668457 4.97556641 -12.50555664 4.10738281 -12.50439453 3.21289062 C-12.1662367 -2.08023647 -3.98409304 0.00236304 0 0 Z " fill="#1C7539" transform="translate(695.375,712.8125)"/>
<path d="M0 0 C1.12341797 -0.01224609 2.24683594 -0.02449219 3.40429688 -0.03710938 C5.01208008 -0.04000977 5.01208008 -0.04000977 6.65234375 -0.04296875 C8.13528931 -0.04913208 8.13528931 -0.04913208 9.64819336 -0.05541992 C12.0625 0.1875 12.0625 0.1875 14.0625 2.1875 C14.2660913 4.66307966 14.34573248 7.02726543 14.3371582 9.50439453 C14.34226913 10.25927155 14.34738007 11.01414856 14.35264587 11.79190063 C14.36660195 14.30145096 14.36557798 16.81072781 14.36328125 19.3203125 C14.36717028 21.07274476 14.37150538 22.82517609 14.37626648 24.5776062 C14.38374545 28.26482175 14.38342924 31.95194165 14.37817383 35.63916016 C14.37243427 40.32123244 14.38916662 45.00290198 14.4125185 49.68490791 C14.42740919 53.31422141 14.42810599 56.94344196 14.42500877 60.57278061 C14.42551624 62.29562032 14.43064376 64.01846606 14.44082069 65.74127579 C14.52867656 82.72353953 13.9875206 102.11804688 1.57421875 115.08203125 C-8.53572603 123.55677501 -21.74327278 127.07663456 -34.75 127.5 C-37.9375 127.1875 -37.9375 127.1875 -39.9375 125.1875 C-40.88299924 120.28310393 -41.15485637 115.42502935 -41.25 110.4375 C-41.28738281 109.14328125 -41.32476562 107.8490625 -41.36328125 106.515625 C-40.9375 103.1875 -40.9375 103.1875 -39.34765625 101.32421875 C-36.28442089 99.87948376 -33.39858028 99.32753648 -30.0625 98.75 C-22.77097169 97.37286173 -22.77097169 97.37286173 -16.9375 93.1875 C-14.36704461 87.45924004 -13.49618676 82.8162324 -13.52099609 76.58422852 C-13.51241074 75.76536667 -13.50382538 74.94650482 -13.49497986 74.10282898 C-13.47009122 71.42393171 -13.46555782 68.74540816 -13.4609375 66.06640625 C-13.44661693 64.19692363 -13.43085802 62.32745153 -13.41372681 60.45799255 C-13.37201515 55.55777054 -13.34691877 50.65761381 -13.32623291 45.75726318 C-13.29030391 37.8894517 -13.22957504 30.02180059 -13.16774368 22.15415764 C-13.14860984 19.40368063 -13.13691555 16.65324684 -13.12631226 13.90272522 C-13.11610759 12.23015241 -13.10575031 10.55758052 -13.09521484 8.88500977 C-13.09365135 7.73106216 -13.09365135 7.73106216 -13.09205627 6.55380249 C-13.02188879 -2.40930042 -7.70369427 0.00440463 0 0 Z " fill="#1D753A" transform="translate(424.9375,717.8125)"/>
<path d="M0 0 C1.02802734 0.00966797 2.05605469 0.01933594 3.11523438 0.02929688 C4.72301758 0.06700195 4.72301758 0.06700195 6.36328125 0.10546875 C7.44673828 0.11900391 8.53019531 0.13253906 9.64648438 0.14648438 C12.3234153 0.18186232 14.99934963 0.23122686 17.67578125 0.29296875 C18.92481926 2.79104476 18.80161582 4.46966875 18.80276489 7.26550293 C18.80558472 8.3171312 18.80840454 9.36875946 18.81130981 10.45225525 C18.80928558 11.61076492 18.80726135 12.7692746 18.80517578 13.96289062 C18.8069281 15.17916641 18.80868042 16.3954422 18.81048584 17.64857483 C18.81414029 20.98941494 18.81327329 24.33019335 18.81010675 27.67103004 C18.8075798 31.16280833 18.80992163 34.65458392 18.81149292 38.1463623 C18.81331363 44.0108284 18.81091088 49.87528191 18.80615234 55.73974609 C18.80070991 62.52553106 18.80247264 69.31128598 18.80797875 76.09707022 C18.81251268 81.91705378 18.81315905 87.73702828 18.81054008 93.55701303 C18.80897885 97.03572997 18.80877935 100.51443277 18.81207657 103.9931488 C18.81549411 107.86979343 18.81076096 111.74640424 18.80517578 115.62304688 C18.80720001 116.78155655 18.80922424 117.94006622 18.81130981 119.13368225 C18.80708008 120.71112465 18.80708008 120.71112465 18.80276489 122.32043457 C18.80238787 123.23778633 18.80201084 124.15513809 18.80162239 125.10028839 C18.67578125 127.29296875 18.67578125 127.29296875 17.67578125 129.29296875 C13.7175089 129.35082522 9.75934455 129.38651592 5.80078125 129.41796875 C4.67285156 129.43472656 3.54492188 129.45148438 2.3828125 129.46875 C0.76826172 129.47841797 0.76826172 129.47841797 -0.87890625 129.48828125 C-1.87390137 129.49875488 -2.86889648 129.50922852 -3.89404297 129.52001953 C-6.32421875 129.29296875 -6.32421875 129.29296875 -8.32421875 127.29296875 C-8.57869434 125.11869907 -8.57869434 125.11869907 -8.58491516 122.36512756 C-8.59199997 121.32335861 -8.59908478 120.28158966 -8.60638428 119.20825195 C-8.60390686 118.06066406 -8.60142944 116.91307617 -8.59887695 115.73071289 C-8.60398788 114.52579697 -8.60909882 113.32088104 -8.61436462 112.07945251 C-8.62590699 108.76947534 -8.62833037 105.45974807 -8.62580132 102.14976811 C-8.62473334 99.38874145 -8.62961057 96.62773802 -8.63440675 93.86671633 C-8.64551123 87.35391634 -8.64593415 80.84117402 -8.63989258 74.32836914 C-8.63385167 67.60501679 -8.64616447 60.88187365 -8.66746265 54.158557 C-8.68506471 48.39035107 -8.6910822 42.62221181 -8.6878249 36.85398 C-8.68600956 33.40703646 -8.68867292 29.96024212 -8.70253944 26.51332283 C-8.71742005 22.67033771 -8.70815985 18.82762005 -8.6965332 14.98461914 C-8.70417694 13.83905548 -8.71182068 12.69349182 -8.71969604 11.51321411 C-8.71268173 10.46862534 -8.70566742 9.42403656 -8.69844055 8.34779358 C-8.69860829 7.43873796 -8.69877604 6.52968233 -8.69894886 5.59307957 C-7.8577893 0.43000315 -4.69970906 -0.07789573 0 0 Z " fill="#1E763B" transform="translate(776.32421875,673.70703125)"/>
<path d="M0 0 C-0.4682121 4.77576339 -1.24331998 8.04476345 -4 12 C-4.66386719 11.89300781 -5.32773437 11.78601563 -6.01171875 11.67578125 C-11.67022503 10.84248571 -11.67022503 10.84248571 -17.0625 12.375 C-18.06863301 13.21885349 -19.0714548 14.0714548 -20 15 C-20.52572706 20.29306034 -20.52572706 20.29306034 -18.76904297 25.09570312 C-17.16836708 27.16844503 -17.16836708 27.16844503 -14.83935547 27.5300293 C-14.02354004 27.54461182 -13.20772461 27.55919434 -12.3671875 27.57421875 C-11.03494141 27.61579102 -11.03494141 27.61579102 -9.67578125 27.65820312 C-8.28939453 27.67270508 -8.28939453 27.67270508 -6.875 27.6875 C-5.03897503 27.72940098 -3.20302502 27.77478208 -1.3671875 27.82421875 C-0.14684814 27.84101685 -0.14684814 27.84101685 1.09814453 27.8581543 C3 28 3 28 4 29 C4.09873816 30.99799572 4.12971799 32.99957158 4.125 35 C4.12886719 36.6396875 4.12886719 36.6396875 4.1328125 38.3125 C4 41 4 41 3 42 C-0.10251201 42.08874135 -3.1826812 42.11518455 -6.28515625 42.09765625 C-7.21597519 42.0962413 -8.14679413 42.09482635 -9.1058197 42.09336853 C-12.09141191 42.08775172 -15.07693029 42.0751964 -18.0625 42.0625 C-20.08137913 42.05748716 -22.10025943 42.05292388 -24.11914062 42.04882812 C-29.07945572 42.03777683 -34.03971532 42.02050095 -39 42 C-39 37.71 -39 33.42 -39 29 C-36.36 29 -33.72 29 -31 29 C-31.495 27.88625 -31.99 26.7725 -32.5 25.625 C-34.51139443 20.18749831 -35.22225446 14.56318249 -33.30859375 8.984375 C-26.43099837 -4.25283787 -12.50598282 -5.66308656 0 0 Z " fill="#1C7338" transform="translate(797,622)"/>
<path d="M0 0 C1.0209375 0.8971875 1.0209375 0.8971875 2.0625 1.8125 C2.825625 2.451875 3.58875 3.09125 4.375 3.75 C7.05507962 8.61384821 6.77530654 13.38929145 6.0625 18.8125 C4.20328867 23.05150184 2.80281329 24.38539618 -1.1875 26.6875 C-6.8614634 28.38968902 -11.36650463 28.91308392 -16.75 26.125 C-20.75059969 23.22260414 -22.61049947 20.83717828 -23.40625 15.91015625 C-23.5010324 6.7044155 -23.5010324 6.7044155 -20.6875 3.1875 C-14.69553038 -1.98738285 -7.44379768 -3.00919481 0 0 Z " fill="#1B7337" transform="translate(712.9375,670.1875)"/>
<path d="M0 0 C3.09233097 2.7327576 4.42474492 4.43817532 5.6875 8.375 C5.88270617 12.97861214 5.30627919 16.37215097 2.875 20.3125 C-1.19133763 24.14647548 -4.59878419 24.82123891 -10.05859375 24.6953125 C-13.57956116 24.19493238 -15.67802095 22.68820111 -18.3125 20.375 C-21.04188559 15.95151301 -21.10074201 11.42293365 -20.3125 6.375 C-18.68056097 3.18914293 -16.34711525 1.15988054 -13.5 -1 C-8.40862445 -2.45467873 -4.66647201 -2.28921268 0 0 Z " fill="#1C7338" transform="translate(298.3125,846.625)"/>
<path d="M0 0 C3.36892491 1.23095333 5.42568691 2.38739937 7.875 5 C9.61765226 9.6470727 9.67018535 14.1024917 9 19 C6.88151477 22.70734915 4.86831655 24.36340454 1 26 C-3.62516534 26.72320767 -7.14401775 26.4121396 -11.375 24.375 C-15.13328497 20.97464693 -16.70711188 18.0083757 -17.4375 13 C-16.68129398 7.81458728 -14.11414696 4.94083521 -10.1875 1.625 C-6.37985365 -0.31615304 -4.22575274 -0.52821909 0 0 Z " fill="#1C7438" transform="translate(325,845)"/>
<path d="M0 0 C-1.16176157 2.85159659 -2.14168562 4.11749539 -4.5625 6.125 C-8.01685856 10.19937163 -8.16987813 13.76466497 -8 19 C-7.53810485 22.07024425 -6.8706624 25.02103938 -6 28 C-9.28153025 25.14649543 -9.8064091 22.89465196 -10.23828125 18.66796875 C-10.46332076 11.14691154 -8.86958558 7.29158346 -3.875 1.5625 C-2 0 -2 0 0 0 Z " fill="#0F5F1E" transform="translate(773,622)"/>
<path d="M0 0 C0.66 0.33 1.32 0.66 2 1 C-3.94 6.94 -9.88 12.88 -16 19 C-16.66 18.67 -17.32 18.34 -18 18 C-16.12973998 15.93302978 -14.25404816 13.87145703 -12.375 11.8125 C-11.59189453 10.9452832 -11.59189453 10.9452832 -10.79296875 10.06054688 C-7.41255947 6.36713674 -3.91565929 3.12194457 0 0 Z " fill="#1A6B2E" transform="translate(540,418)"/>
<path d="M0 0 C0.99 0.33 1.98 0.66 3 1 C-1.62 5.62 -6.24 10.24 -11 15 C-11.33 14.01 -11.66 13.02 -12 12 C-8.04 8.04 -4.08 4.08 0 0 Z " fill="#156729" transform="translate(452,150)"/>
<path d="M0 0 C1.92408012 3.57842939 3.26050566 7.30281996 4.625 11.125 C5.07101562 12.36507812 5.51703125 13.60515625 5.9765625 14.8828125 C7 18 7 18 7 20 C5.35 19.67 3.7 19.34 2 19 C2 18.34 2 17.68 2 17 C2.66 17 3.32 17 4 17 C3.71125 16.19175781 3.4225 15.38351562 3.125 14.55078125 C2.568125 12.94783203 2.568125 12.94783203 2 11.3125 C1.62875 10.25675781 1.2575 9.20101562 0.875 8.11328125 C0.0608143 5.21637944 -0.17709796 2.98299377 0 0 Z " fill="#E4ECE0" transform="translate(726,518)"/>
<path d="M0 0 C0.66 0.33 1.32 0.66 2 1 C1.21753906 1.77085937 0.43507813 2.54171875 -0.37109375 3.3359375 C-1.39336057 4.34882573 -2.41548881 5.36185384 -3.4375 6.375 C-4.2119043 7.13683594 -4.2119043 7.13683594 -5.00195312 7.9140625 C-7.857133 10.68568936 -7.857133 10.68568936 -10 14 C-10.66 13.67 -11.32 13.34 -12 13 C-8.43679155 7.90789714 -4.95258714 3.77339973 0 0 Z " fill="#19692C" transform="translate(321,712)"/>
<path d="M0 0 C0.66 0.33 1.32 0.66 2 1 C1.24203125 1.54914063 1.24203125 1.54914063 0.46875 2.109375 C-2.87691727 4.89743106 -4.80904415 6.71144921 -5.46484375 11.13671875 C-5.44014239 14.11852587 -5.30676588 17.03459654 -5 20 C-7.55573817 17.44426183 -7.35498461 16.30301573 -7.4375 12.75 C-7.38116908 8.84780388 -7.13945118 6.41607665 -4.625 3.375 C-2 1 -2 1 0 0 Z " fill="#106222" transform="translate(324,418)"/>
<path d="M0 0 C0.66 0 1.32 0 2 0 C0.44499019 3.81684226 -2.03595495 6.19195732 -5 9 C-5.66 8.67 -6.32 8.34 -7 8 C-5.88200014 6.66079162 -4.75538103 5.32877444 -3.625 4 C-2.68527344 2.88625 -2.68527344 2.88625 -1.7265625 1.75 C-1.15679688 1.1725 -0.58703125 0.595 0 0 Z " fill="#17692B" transform="translate(771,622)"/>
<path d="M0 0 C0.66 0.33 1.32 0.66 2 1 C1.05125 1.886875 0.1025 2.77375 -0.875 3.6875 C-3.46748883 6.26164575 -4.9525021 8.43850715 -6 12 C-7 9 -7 9 -5.25 5.4375 C-3.65261528 2.66591829 -2.80321956 1.86881304 0 0 Z " fill="#1A682B" transform="translate(411,373)"/>
<path d="M0 0 C0.66 0 1.32 0 2 0 C2.33 1.98 2.66 3.96 3 6 C3.99 6.33 4.98 6.66 6 7 C6 7.66 6 8.32 6 9 C4.02 8.34 2.04 7.68 0 7 C0 4.69 0 2.38 0 0 Z " fill="#E6EEE1" transform="translate(437,384)"/>
</svg>
